<svg xmlns="http://www.w3.org/2000/svg" xmlns:xlink="http://www.w3.org/1999/xlink" width="1000" zoomAndPan="magnify" viewBox="0 0 750 749.999995" height="1000" preserveAspectRatio="xMidYMid meet" version="1.0"><defs><g/></defs><g fill="#ffde59" fill-opacity="1"><g transform="translate(0.00000265, 528.1858)"><g><path d="M 125 4.171875 C 110.28125 4.171875 96.738281 2.226562 84.375 -1.65625 C 72.007812 -5.550781 61.382812 -11.175781 52.5 -18.53125 C 43.613281 -25.894531 36.597656 -34.71875 31.453125 -45 C 26.316406 -55.28125 23.472656 -66.804688 22.921875 -79.578125 L 76.25 -79.578125 C 76.800781 -67.640625 81.59375 -58.265625 90.625 -51.453125 C 99.65625 -44.648438 111.53125 -41.25 126.25 -41.25 C 141.53125 -41.25 153.40625 -44.71875 161.875 -51.65625 C 170.34375 -58.601562 174.578125 -67.910156 174.578125 -79.578125 C 174.578125 -89.859375 171.382812 -98.75 165 -106.25 C 158.613281 -113.75 149.585938 -119.304688 137.921875 -122.921875 L 106.25 -132.078125 C 54.582031 -146.242188 28.75 -175.96875 28.75 -221.25 C 28.75 -233.75 31.039062 -245.140625 35.625 -255.421875 C 40.207031 -265.703125 46.664062 -274.519531 55 -281.875 C 63.332031 -289.238281 73.46875 -294.863281 85.40625 -298.75 C 97.351562 -302.644531 110.828125 -304.59375 125.828125 -304.59375 C 154.160156 -304.59375 177.007812 -297.300781 194.375 -282.71875 C 211.738281 -268.132812 221.113281 -248.0625 222.5 -222.5 L 169.578125 -222.5 C 169.023438 -233.894531 164.582031 -242.785156 156.25 -249.171875 C 147.914062 -255.554688 137.359375 -258.75 124.578125 -258.75 C 110.972656 -258.75 100.28125 -255.554688 92.5 -249.171875 C 84.71875 -242.785156 80.828125 -234.3125 80.828125 -223.75 C 80.828125 -203.75 92.910156 -190.273438 117.078125 -183.328125 L 150.421875 -174.171875 C 175.421875 -167.222656 194.445312 -155.898438 207.5 -140.203125 C 220.5625 -124.515625 227.09375 -105.140625 227.09375 -82.078125 C 227.09375 -69.023438 224.660156 -57.21875 219.796875 -46.65625 C 214.929688 -36.101562 208.050781 -27.078125 199.15625 -19.578125 C 190.269531 -12.078125 179.578125 -6.242188 167.078125 -2.078125 C 154.578125 2.085938 140.550781 4.171875 125 4.171875 Z M 125 4.171875 "/></g></g></g><g fill="#ffde59" fill-opacity="1"><g transform="translate(249.99878, 528.1858)"><g><path d="M 25.421875 -87.921875 L 25.421875 -212.5 C 25.421875 -226.394531 27.78125 -238.96875 32.5 -250.21875 C 37.21875 -261.46875 43.882812 -271.117188 52.5 -279.171875 C 61.113281 -287.222656 71.597656 -293.398438 83.953125 -297.703125 C 96.316406 -302.015625 110 -304.171875 125 -304.171875 C 140 -304.171875 153.675781 -302.015625 166.03125 -297.703125 C 178.394531 -293.398438 188.882812 -287.222656 197.5 -279.171875 C 206.113281 -271.117188 212.78125 -261.46875 217.5 -250.21875 C 222.226562 -238.96875 224.59375 -226.394531 224.59375 -212.5 L 224.59375 -87.921875 C 224.59375 -69.023438 220.351562 -52.632812 211.875 -38.75 C 203.40625 -24.863281 191.671875 -14.304688 176.671875 -7.078125 L 226.671875 68.75 L 170.421875 68.75 L 127.5 4.171875 C 113.050781 4.171875 99.644531 2.226562 87.28125 -1.65625 C 74.925781 -5.550781 64.164062 -11.382812 55 -19.15625 C 45.832031 -26.9375 38.609375 -36.519531 33.328125 -47.90625 C 28.054688 -59.300781 25.421875 -72.640625 25.421875 -87.921875 Z M 125 -41.671875 C 139.445312 -41.671875 150.972656 -45.835938 159.578125 -54.171875 C 168.191406 -62.503906 172.5 -73.753906 172.5 -87.921875 L 172.5 -212.5 C 172.5 -226.664062 168.191406 -237.914062 159.578125 -246.25 C 150.972656 -254.582031 139.445312 -258.75 125 -258.75 C 110.550781 -258.75 99.019531 -254.582031 90.40625 -246.25 C 81.800781 -237.914062 77.5 -226.664062 77.5 -212.5 L 77.5 -87.921875 C 77.5 -73.753906 81.800781 -62.503906 90.40625 -54.171875 C 99.019531 -45.835938 110.550781 -41.671875 125 -41.671875 Z M 125 -41.671875 "/></g></g></g><g fill="#ffde59" fill-opacity="1"><g transform="translate(499.997558, 528.1858)"><g><path d="M 93.328125 -300 L 93.328125 -48.328125 L 224.171875 -48.328125 L 224.171875 0 L 41.25 0 L 41.25 -300 Z M 93.328125 -300 "/></g></g></g></svg>